<svg width="64" height="64" viewBox="0 0 64 64" fill="none" xmlns="http://www.w3.org/2000/svg">
<rect width="64" height="64" fill="#18172E"/>
<rect width="53.888" height="44.416" transform="translate(6.40015 9.85596)" fill="#18172E"/>
<path d="M33.3606 46.4521C33.5622 46.1522 33.9002 45.9722 34.2621 45.9722H57.1684C58.0365 45.9722 58.5533 46.9391 58.0698 47.6588L53.9493 53.7921C53.7478 54.0921 53.4098 54.2721 53.0479 54.2721H30.1416C29.2734 54.2721 28.7567 53.3052 29.2402 52.5855L33.3606 46.4521Z" fill="#00C7D0"/>
<path d="M7.53967 52.5834L20.0825 33.9973C20.6894 33.098 20.7004 31.9239 20.1104 31.0134L7.48341 11.5276C7.01632 10.8068 7.53469 9.85597 8.39474 9.85597L16.682 9.85596C17.6064 9.85596 18.4673 10.3257 18.9662 11.1025L31.7614 31.0227C32.3435 31.9289 32.3327 33.0931 31.7338 33.9883L18.9712 53.0675C18.4678 53.82 17.6211 54.2719 16.7146 54.2719L8.43984 54.2719C7.57063 54.272 7.05407 53.303 7.53967 52.5834Z" fill="white"/>
</svg>

