<svg width="1040" height="149" viewBox="0 0 1040 149" fill="none" xmlns="http://www.w3.org/2000/svg">
<path d="M107.678 42.3989L86.661 114.292H67.071L53.969 64.0699L40.866 114.292H21.1463L0 42.3989H18.422L31.136 97.1619L44.887 42.3989H64.088L77.58 97.0319L90.293 42.3989H107.678Z" fill="#18172E"/>
<path d="M157.354 41.3602C162.802 41.3602 167.646 42.5722 171.884 44.9942C176.122 47.3302 179.408 50.8342 181.743 55.5062C184.165 60.0912 185.376 65.6282 185.376 72.1162V114.292H167.213V74.5822C167.213 68.8722 165.786 64.5032 162.932 61.4752C160.078 58.3612 156.186 56.8032 151.256 56.8032C146.24 56.8032 142.261 58.3612 139.321 61.4752C136.467 64.5032 135.04 68.8722 135.04 74.5822V114.292H116.877V18.2612H135.04V51.3532C137.375 48.2382 140.488 45.8162 144.38 44.0862C148.272 42.2692 152.597 41.3602 157.354 41.3602Z" fill="#18172E"/>
<path d="M206.839 33.8338C203.639 33.8338 200.957 32.8388 198.795 30.8488C196.72 28.7728 195.682 26.2208 195.682 23.1928C195.682 20.1648 196.72 17.6558 198.795 15.6658C200.957 13.5888 203.639 12.5508 206.839 12.5508C210.039 12.5508 212.677 13.5888 214.752 15.6658C216.915 17.6558 217.996 20.1648 217.996 23.1928C217.996 26.2208 216.915 28.7728 214.752 30.8488C212.677 32.8388 210.039 33.8338 206.839 33.8338ZM215.79 42.3988V114.292H197.628V42.3988H215.79Z" fill="#18172E"/>
<path d="M254.253 57.3221V92.1011C254.253 94.5231 254.815 96.2971 255.939 97.4221C257.15 98.4601 259.139 98.9791 261.907 98.9791H270.339V114.292H258.923C243.614 114.292 235.96 106.852 235.96 91.9711V57.3221H227.398V42.3991H235.96V24.6201H254.253V42.3991H270.339V57.3221H254.253Z" fill="#18172E"/>
<path d="M348.332 76.7879C348.332 79.3829 348.159 81.719 347.813 83.796H295.272C295.704 88.987 297.52 93.053 300.72 95.994C303.92 98.936 307.856 100.406 312.526 100.406C319.272 100.406 324.072 97.508 326.926 91.712H346.516C344.44 98.633 340.462 104.343 334.58 108.842C328.699 113.254 321.477 115.46 312.915 115.46C305.996 115.46 299.769 113.946 294.234 110.918C288.785 107.803 284.504 103.434 281.39 97.811C278.363 92.188 276.85 85.699 276.85 78.345C276.85 70.905 278.363 64.373 281.39 58.75C284.417 53.126 288.655 48.8009 294.104 45.7729C299.553 42.7449 305.823 41.231 312.915 41.231C319.748 41.231 325.845 42.701 331.207 45.643C336.656 48.584 340.851 52.78 343.791 58.231C346.818 63.595 348.332 69.7799 348.332 76.7879ZM329.521 71.597C329.434 66.925 327.748 63.205 324.461 60.437C321.175 57.582 317.153 56.154 312.396 56.154C307.899 56.154 304.093 57.539 300.98 60.307C297.953 62.989 296.093 66.752 295.401 71.597H329.521Z" fill="#18172E"/>
<path d="M378.218 52.6359C380.553 49.3479 383.753 46.6229 387.818 44.4599C391.969 42.2109 396.683 41.0859 401.959 41.0859C408.099 41.0859 413.635 42.5999 418.564 45.6279C423.581 48.6559 427.516 52.9819 430.37 58.6049C433.311 64.1419 434.781 70.5879 434.781 77.9409C434.781 85.2949 433.311 91.8269 430.37 97.5369C427.516 103.16 423.581 107.529 418.564 110.644C413.635 113.758 408.099 115.315 401.959 115.315C396.683 115.315 392.013 114.234 387.948 112.071C383.969 109.908 380.726 107.183 378.218 103.896V148.407H360.055V42.2539H378.218V52.6359ZM416.229 77.9409C416.229 73.6159 415.321 69.8959 413.505 66.7809C411.775 63.5799 409.44 61.1579 406.499 59.5139C403.645 57.8699 400.532 57.0479 397.159 57.0479C393.872 57.0479 390.758 57.9129 387.818 59.6439C384.964 61.2869 382.629 63.7099 380.812 66.9109C379.083 70.1119 378.218 73.8749 378.218 78.2009C378.218 82.5269 379.083 86.2899 380.812 89.4909C382.629 92.6919 384.964 95.1579 387.818 96.8879C390.758 98.5319 393.872 99.3539 397.159 99.3539C400.532 99.3539 403.645 98.4879 406.499 96.7579C409.44 95.0279 411.775 92.5619 413.505 89.3609C415.321 86.1599 416.229 82.3539 416.229 77.9409Z" fill="#00C7D0"/>
<path d="M461.749 53.4148C464.084 49.6078 467.111 46.6228 470.83 44.4598C474.635 42.2978 478.96 41.2158 483.803 41.2158V60.2918H479.003C473.295 60.2918 468.97 61.6328 466.03 64.3148C463.176 66.9968 461.749 71.6688 461.749 78.3308V114.148H443.586V42.2538H461.749V53.4148Z" fill="#00C7D0"/>
<path d="M522.93 115.315C516.011 115.315 509.784 113.801 504.248 110.773C498.713 107.659 494.345 103.29 491.145 97.6669C488.032 92.0429 486.475 85.5549 486.475 78.2009C486.475 70.8469 488.075 64.3589 491.275 58.7349C494.562 53.1119 499.016 48.7859 504.638 45.7579C510.259 42.6439 516.53 41.0859 523.449 41.0859C530.368 41.0859 536.638 42.6439 542.26 45.7579C547.882 48.7859 552.292 53.1119 555.493 58.7349C558.779 64.3589 560.422 70.8469 560.422 78.2009C560.422 85.5549 558.736 92.0429 555.363 97.6669C552.076 103.29 547.579 107.659 541.871 110.773C536.249 113.801 529.935 115.315 522.93 115.315ZM522.93 99.4829C526.216 99.4829 529.287 98.7049 532.141 97.1479C535.081 95.5039 537.417 93.0809 539.146 89.8799C540.876 86.6789 541.741 82.7859 541.741 78.2009C541.741 71.3659 539.925 66.1319 536.292 62.4989C532.746 58.7779 528.379 56.9179 523.189 56.9179C518 56.9179 513.632 58.7779 510.086 62.4989C506.627 66.1319 504.897 71.3659 504.897 78.2009C504.897 85.0359 506.584 90.3129 509.957 94.0329C513.416 97.6669 517.741 99.4829 522.93 99.4829Z" fill="#00C7D0"/>
<path d="M657.352 41.2158C666.173 41.2158 673.265 43.9408 678.628 49.3918C684.076 54.7558 686.801 62.2818 686.801 71.9718V114.148H668.638V74.4378C668.638 68.8138 667.211 64.5318 664.357 61.5898C661.503 58.5618 657.611 57.0478 652.681 57.0478C647.752 57.0478 643.816 58.5618 640.876 61.5898C638.022 64.5318 636.595 68.8138 636.595 74.4378V114.148H618.432V74.4378C618.432 68.8138 617.005 64.5318 614.151 61.5898C611.297 58.5618 607.405 57.0478 602.475 57.0478C597.459 57.0478 593.48 58.5618 590.54 61.5898C587.686 64.5318 586.259 68.8138 586.259 74.4378V114.148H568.096V42.2538H586.259V50.9488C588.594 47.9208 591.578 45.5418 595.21 43.8118C598.929 42.0808 602.994 41.2158 607.405 41.2158C613.027 41.2158 618.043 42.4268 622.454 44.8498C626.865 47.1858 630.281 50.5598 632.703 54.9718C635.038 50.8188 638.411 47.4878 642.822 44.9788C647.319 42.4708 652.162 41.2158 657.352 41.2158Z" fill="#00C7D0"/>
<path d="M717.179 52.6359C719.514 49.3479 722.714 46.6229 726.779 44.4599C730.93 42.2109 735.644 41.0859 740.92 41.0859C747.06 41.0859 752.596 42.5999 757.526 45.6279C762.542 48.6559 766.477 52.9819 769.331 58.6049C772.272 64.1419 773.742 70.5879 773.742 77.9409C773.742 85.2949 772.272 91.8269 769.331 97.5369C766.477 103.16 762.542 107.529 757.526 110.644C752.596 113.758 747.06 115.315 740.92 115.315C735.644 115.315 730.974 114.234 726.909 112.071C722.93 109.908 719.687 107.183 717.179 103.896V148.407H699.016V42.2539H717.179V52.6359ZM755.19 77.9409C755.19 73.6159 754.282 69.8959 752.466 66.7809C750.736 63.5799 748.401 61.1579 745.46 59.5139C742.606 57.8699 739.493 57.0479 736.12 57.0479C732.833 57.0479 729.72 57.9129 726.779 59.6439C723.925 61.2869 721.59 63.7099 719.774 66.9109C718.044 70.1119 717.179 73.8749 717.179 78.2009C717.179 82.5269 718.044 86.2899 719.774 89.4909C721.59 92.6919 723.925 95.1579 726.779 96.8879C729.72 98.5319 732.833 99.3539 736.12 99.3539C739.493 99.3539 742.606 98.4879 745.46 96.7579C748.401 95.0279 750.736 92.5619 752.466 89.3609C754.282 86.1599 755.19 82.3539 755.19 77.9409Z" fill="#00C7D0"/>
<path d="M804.949 57.1781V91.9571C804.949 94.3791 805.511 96.1531 806.635 97.2771C807.846 98.3151 809.835 98.8351 812.603 98.8351H821.035V114.148H809.619C794.311 114.148 786.656 106.707 786.656 91.8271V57.1781H778.094V42.2541H786.656V24.4761H804.949V42.2541H821.035V57.1781H804.949Z" fill="#00C7D0"/>
<path d="M956.19 122.278C956.87 121.276 957.99 120.674 959.2 120.674H1035.6C1038.49 120.674 1040.21 123.905 1038.6 126.31L1024.86 146.803C1024.19 147.805 1023.06 148.407 1021.85 148.407H945.46C942.56 148.407 940.84 145.176 942.45 142.771L956.19 122.278Z" fill="#18172E"/>
<path d="M870.081 142.765L911.912 80.663C913.936 77.658 913.972 73.736 912.005 70.693L869.893 5.586C868.335 3.177 870.064 0 872.932 0H900.571C903.654 0 906.525 1.56999 908.189 4.16499L950.86 70.724C952.8 73.752 952.77 77.642 950.77 80.633L908.205 144.383C906.527 146.897 903.703 148.407 900.68 148.407H873.083C870.184 148.407 868.461 145.169 870.081 142.765Z" fill="#18172E"/>
</svg>
